<svg xmlns="http://www.w3.org/2000/svg" version="1.1" xmlns:xlink="http://www.w3.org/1999/xlink"
    xmlns:svgjs="http://svgjs.com/svgjs" width="512" height="512" x="0" y="0" viewBox="0 0 135.46666 135.46666"
    style="enable-background:new 0 0 512 512" xml:space="preserve" class="">
    <g>
        <clipPath id="clipPath5136">
            <rect id="rect5138" height="89.013" rx="7.858" width="87.501" x="-68.036" y="22.301" fill="#000000"
                data-original="#000000"></rect>
        </clipPath>
        <clipPath id="clipPath3786">
            <path id="rect3788" d="m84.667 15.119h79.375v72.571h-79.375z" paint-order="fill markers stroke"
                fill="#000000" data-original="#000000"></path>
        </clipPath>
        <g id="layer1">
            <g id="g4582" transform="matrix(1.02 0 0 1.02 -11.216 .017)">
                <g id="g7740" transform="matrix(.985 0 0 .985 5.218 -2.994)">
                    <g id="g7695" stroke-linecap="round" stroke-linejoin="round">
                        <path id="path7618"
                            d="m27.039084 109.81129s-14.583488.47044-14.583488 3.01079c0 2.54034 10.725921 6.96243 8.185571 8.84417-2.540349 1.88174-10.443658 9.65334-3.857567 9.65334s27.661581-2.78499 28.226104-5.60759c.564522-2.82262-17.97062-15.90071-17.97062-15.90071z"
                            fill="#ffac17" stroke-width="9.957" data-original="#ffac17"></path>
                        <g id="g7614" transform="translate(.441 -3.992)">
                            <path id="path16029"
                                d="m72.64413 36.636828v.02315c-3.009314.06096-26.907316.554362-34.571186 1.065283-8.166444.544431-5.428699-4.468162-7.35014 6.805529-.49992 2.933187-.846078 8.510866-1.058103 15.334757-.614411 19.77438-.102473 23.29759 1.058103 29.976037 1.226148 7.055774 4.996251 8.16647 4.996251 8.16647l14.62552-.000009 22.600903-2.489436 23.705743 2.489436 12.888139.000009s4.49203.668864 6.11454-8.16647c1.23689-6.735422 1.4766-10.719389.87608-30.479892-.2004-6.594236-.49438-11.970239-.87608-14.830902-1.51258-11.335789.81684-6.261098-7.34962-6.805529-7.66381-.510908-31.561552-1.004316-34.571181-1.065271v-.02315s-.494.01057-.544748.01159c-.05066-.0011-.544221-.01159-.544221-.01159z"
                                fill="#7738c7" stroke-width="1.528" data-original="#7738c7" class=""></path>
                            <path id="path16217"
                                d="m72.644177 36.636737v.02349c-3.009314.06096-26.907158.554119-34.571028 1.065039-8.166444.544432-5.429111-4.468335-7.350554 6.805355-.406972 2.387836-.7104 6.543038-.92416 11.681617 2.757684 1.060084 6.022034 1.440991 8.996479-.489787 6.921882-4.493151 4.493187-7.5288 10.322142-4.371451 5.828952 3.157351 11.172023 1.335797 14.450812-1.21437 3.278784-2.550166 4.979035 6.071652 11.900914 2.914301 6.921883-3.157349 8.014765-3.764348 12.993663-.485559 4.978895 3.278784 12.508195-1.821934 13.479685-2.671992.92106-.805918 7.40899 8.755747 14.49636 6.749943-.19466-5.341328-.45705-9.657338-.78468-12.112702-1.51258-11.335792.81684-6.260923-7.34962-6.805355-7.66381-.510908-31.561396-1.004083-34.571026-1.065039v-.02349s-.493979.01072-.544727.01174c-.05066-.0012-.54426-.01174-.54426-.01174z"
                                fill="#171d8f" stroke-width="1.363" data-original="#171d8f" class=""></path>
                            <g stroke-width="1.528">
                                <path id="path16049"
                                    d="m59.481622 15.14718c-3.072459-1.089593-5.729909-2.843201-11.260365 0-12.539536 7.635204-18.149993 16.656223-24.009783 25.627376 6.63085 2.71827 13.088391 2.143644 19.463352 0 10.371028-8.464174 12.388112-15.497417 15.806796-25.627376z"
                                    fill="#ff4b3d" data-original="#ff4b3d"></path>
                                <path id="path16234"
                                    d="m31.620929 30.03002c-2.739616 3.52759-5.054783 7.139688-7.409252 10.744307 6.63085 2.718269 13.088295 2.143644 19.463255 0 2.410574-1.967354 4.365347-3.8571 5.995774-5.726697-8.160211-1.286703-13.970289-3.172323-18.049777-5.01761z"
                                    fill="#cf1531" data-original="#cf1531"></path>
                                <path id="path16047"
                                    d="m63.138178 40.774556c4.793771-9.733477 5.459055-15.893898 5.980803-25.627376-3.212454-2.304093-6.424907-1.788479-9.637359 0l-15.806796 25.627376s12.436999 2.720765 19.463352 0z"
                                    fill="#ffc517" data-original="#ffc517" class=""></path>
                                <path id="path16051"
                                    d="m86.258087 15.14718c3.072459-1.089593 5.729909-2.843201 11.260363 0 12.43399 6.770169 18.29465 16.169669 24.00979 25.627376-6.63085 2.71827-13.08839 2.143644-19.46335 0-11.425709-8.808333-12.388119-15.497417-15.806803-25.627376z"
                                    fill="#ff4b3d" data-original="#ff4b3d"></path>
                                <path id="path16239"
                                    d="m47.438727 34.671955-3.763795 6.102372s12.436903 2.720765 19.463257 0c.73804-1.498553 1.377859-2.911486 1.934726-4.266728-6.900883-.284795-12.728364-.951015-17.634188-1.835644z"
                                    fill="#ffac17" data-original="#ffac17"></path>
                                <path id="path16254"
                                    d="m113.42465 28.634857c-4.14207 2.243255-9.9551 4.508299-17.978876 6.057761 1.719832 1.956249 3.862684 3.956862 6.618926 6.081709 6.37496 2.143644 12.83288 2.718269 19.46372 0-2.49509-4.129009-5.01835-8.246595-8.10377-12.13947z"
                                    fill="#cf1531" data-original="#cf1531"></path>
                                <path id="path16053"
                                    d="m82.60153 40.774554c-4.793771-9.733477-3.855293-15.893896-4.377041-25.627374 3.212454-2.304093 6.424907-1.788479 9.637359 0l14.203042 25.627374s-12.437007 2.720765-19.46336 0z"
                                    fill="#ffc517" data-original="#ffc517" class=""></path>
                                <path id="path16249"
                                    d="m98.353971 34.078389c-4.899429 1.125001-10.718861 1.980875-17.608832 2.362057.49697 1.3755 1.106175 2.810783 1.856305 4.333881 7.026353 2.720765 19.463256 0 19.463256 0z"
                                    fill="#ffac17" data-original="#ffac17"></path>
                            </g>
                            <path id="path16034"
                                d="m78.224489 15.14718c-2.618902-.999041-5.234438-2.006166-9.105509 0l-5.980801 25.627374c6.95198 1.856786 13.273442 1.1915 19.463351 0z"
                                fill="#ff4b3d" stroke-width="1.762" data-original="#ff4b3d"></path>
                            <path id="path16244"
                                d="m81.850094 36.376582c-2.874155.183145-5.937673.283633-9.205917.283633-3.005381 0-5.832698-.06883-8.500587-.193942l-1.005401 4.308054c6.95198 1.856784 13.273347 1.191499 19.463255 0z"
                                fill="#cf1531" stroke-width="1.762" data-original="#cf1531"></path>
                            <path id="path16039"
                                d="m63.138179 40.774554c0 3.476794-1.854847 6.689482-4.865838 8.427879s-6.720687 1.738397-9.731678 0c-3.01099-1.738397-4.865837-4.951086-4.865837-8.427879"
                                fill="#ff4b3d" stroke-width="1.528" data-original="#ff4b3d"></path>
                            <path id="path16041"
                                d="m43.674826 40.774554c0 3.476794-1.854847 6.689482-4.865838 8.427879s-6.720685 1.738397-9.731677 0c-3.01099-1.738397-4.865837-4.951086-4.865837-8.427879"
                                fill="#ffc517" stroke-width="1.528" data-original="#ffc517" class=""></path>
                            <path id="path16055"
                                d="m82.60153 40.774554c0 3.476794 1.854847 6.689482 4.865838 8.427879 3.010993 1.7384 6.720692 1.7384 9.731685 0 3.010997-1.738396 4.865837-4.951085 4.865837-8.427879"
                                fill="#ff4b3d" stroke-width="1.528" data-original="#ff4b3d"></path>
                            <path id="path16057"
                                d="m102.06489 40.774554c0 3.476791 1.85484 6.689479 4.86583 8.427879 3.01099 1.738401 6.72069 1.738401 9.73168 0 3.01099-1.738397 4.86584-4.951086 4.86584-8.427879"
                                fill="#ffc517" stroke-width="1.528" data-original="#ffc517" class=""></path>
                            <path id="path16036"
                                d="m82.60153 40.774554c0 3.476793-1.854846 6.689482-4.865836 8.427879-3.010992 1.738398-6.720687 1.738398-9.731679 0-3.01099-1.738397-4.865836-4.951086-4.865836-8.427879"
                                fill="#ffc517" stroke-width="1.528" data-original="#ffc517" class=""></path>
                        </g>
                        <path id="path7622"
                            d="m119.88415 109.81129s14.58349.47044 14.58349 3.01079c0 2.54034-10.72592 6.96243-8.18557 8.84417 2.54034 1.88174 10.44365 9.65334 3.85756 9.65334s-27.66158-2.78499-28.2261-5.60759c-.56452-2.82262 17.97062-15.90071 17.97062-15.90071z"
                            fill="#ffac17" stroke-width="9.957" data-original="#ffac17"></path>
                        <g id="g7642" stroke-width="1.494" transform="matrix(.761 0 0 .761 22.397 13.143)">
                            <path id="path16185"
                                d="m55.078992 113.44306s-2.79424-39.493802-.93141-50.138532c1.86283-10.644729 19.02745-9.580256 23.95064-5.721542s0 55.860074 0 55.860074z"
                                fill="#171d8f" data-original="#171d8f" class=""></path>
                            <path id="path16194"
                                d="m56.409582 79.338153s-.33264 12.108384.46571 15.634444c.79836 3.52607 1.39712.59877 1.26407-2.59465-.13306-3.19342.59876-12.441029-.26612-14.037737-.86489-1.596711-1.46366-.598768-1.46366.997943z"
                                fill="#ffffff" data-original="#ffffff" class=""></path>
                        </g>
                        <path id="path7616"
                            d="m256.57227 308.57227s-114.42885-.71485-165.857426 19.28515c-51.42857 20-26.429967 35.71343-24.28711 61.42774 2.142857 25.71426.000281 36.42886 17.857422 47.85742 17.857144 11.42859 53.571704 30.00111 62.857424 31.42969 9.28571 1.42857-10.10156-48.91211-10.10156-48.91211s38.24553-15.37443 119.53125-14.66016c81.28571-.71427 119.52929 14.66016 119.52929 14.66016s-19.38728 50.34068-10.10156 48.91211c9.28571-1.42858 45.00028-20.0011 62.85742-31.42969 17.85714-11.42856 15.71457-22.14316 17.85742-47.85742 2.14285-25.71431 27.14143-41.42774-24.28711-61.42774-51.42861-20-165.85546-19.28515-165.85546-19.28515z"
                            fill="#ffc517" stroke-width="37.795" transform="matrix(.263 0 0 .263 5.87 3.023)"
                            data-original="#ffc517" class=""></path>
                        <path id="path7620"
                            d="m41.972172 113.5795s-7.561483 1.54535-9.158191 2.14411c-1.596711.59877 5.521952.13306 7.917016 2.66119 2.395066 2.52812 1.241175-4.8053 1.241175-4.8053z"
                            fill="#ffac17" stroke-width="9.957" data-original="#ffac17"></path>
                        <path id="path7626"
                            d="m104.95106 113.5795s7.56148 1.54535 9.15819 2.14411c1.59671.59877-5.52195.13306-7.91701 2.66119-2.39507 2.52812-1.24118-4.8053-1.24118-4.8053z"
                            fill="#ffac17" stroke-width="9.957" data-original="#ffac17"></path>
                        <g stroke-width="1.071">
                            <path id="path16196"
                                d="m40.124449 58.102794s2.091252-1.214276 7.892794-1.011896c5.801543.202379 7.488033.809517 7.757876 1.821416.269836 1.011894.607131 17.607001-.134926 19.226036-.742056 1.619034-11.333241 1.888875-15.178449.337299-3.845209-1.551574-1.68649-19.495877-.337295-20.372855z"
                                fill="#ffffff" data-original="#ffffff" class=""></path>
                            <path id="path16207"
                                d="m46.249056 57.07435c-.0744 2.255866-.180004 5.697358-.261933 10.160446-2.671266-.03821-5.308071-.05155-7.596074-.02398-.597369.865135-.224081 1.33572-.08451 1.905108 2.020427.05677 4.735128.110595 7.647718.15753-.05429 3.740677-.06302 7.443179.02765 10.16561.562335.276207 1.131801.556416 1.763076.06308.09021-1.737783.176614-5.751328.247917-10.197337 2.839618.04162 5.619244.07339 8.096336.09777.169063-.647303.266522-1.294077-.01-1.939785-2.266273-.0667-5.069101-.141593-8.055016-.195896.05342-3.661993.09456-7.351931.117686-10.170775-.08992-.259568-1.735609-.457407-1.892933-.02176z"
                                fill="#7738c7" data-original="#7738c7" class=""></path>
                            <path id="path16222"
                                d="m37.690663 80.356562s6.58277.333911 13.260952.190805c6.678175-.143104 6.153461-.524717 4.960931-2.194258-1.19253-1.669545-14.405785-1.431039-16.26614-1.049427-1.860347.381609-4.38851 3.100581-1.955743 3.05288z"
                                fill="#ffc517" data-original="#ffc517" class=""></path>
                            <path id="path7644"
                                d="m106.27334 58.102794s-2.09125-1.214276-7.892789-1.011896c-5.801548.202379-7.488038.809517-7.757878 1.821416-.26983 1.011894-.60713 17.607001.13493 19.226036.74205 1.619034 11.333237 1.888875 15.178447.337299 3.84521-1.551574 1.68649-19.495877.33729-20.372855z"
                                fill="#ffffff" data-original="#ffffff" class=""></path>
                            <path id="path7646"
                                d="m100.14873 57.07435c.0744 2.255866.18001 5.697358.26194 10.160446 2.67127-.03821 5.30807-.05155 7.59607-.02398.59737.865135.22409 1.33572.0845 1.905108-2.02042.05677-4.73512.110595-7.64772.15753.0543 3.740677.063 7.443179-.0276 10.16561-.562334.276207-1.131799.556416-1.763069.06308-.0902-1.737783-.17662-5.751328-.24792-10.197337-2.839618.04162-5.619238.07339-8.096338.09777-.16906-.647303-.26652-1.294077.01-1.939785 2.26628-.0667 5.06911-.141593 8.055018-.195896-.0534-3.661993-.0946-7.351931-.11769-10.170775.0899-.259568 1.735605-.457407 1.892939-.02176z"
                                fill="#7738c7" data-original="#7738c7" class=""></path>
                        </g>
                        <g id="g7655" fill="#fff" transform="translate(-3.12 -1.064)">
                            <path id="path7629"
                                d="m82.193289 105.13011c-.750802.54302-4.579117-2.79899-5.505703-2.80099-.926585-.003-4.769333 3.32339-5.517778 2.77713-.748443-.54625 1.246977-5.219933.962555-6.101789-.284423-.881855-4.63454-3.50892-4.346301-4.389536.288239-.880614 5.349793-.427103 6.100594-.970113s1.905031-5.492026 2.831616-5.490019c.926586.0019 2.059377 4.955972 2.807821 5.502227.748443.546257 5.811913.11466 6.096335.996518.284422.881854-4.077027 3.490065-4.365265 4.370677-.288238.880618 1.686928 5.562885.936126 6.105895z"
                                stroke-width="7.825" fill="#ffffff" data-original="#ffffff" class=""></path>
                            <path id="path7632"
                                d="m62.424739 104.1879c-.543507.5008-3.890389-1.78558-4.624456-1.6999-.734133.0851-3.4644 3.08141-4.108634 2.71926-.644234-.36216.495987-4.25176.187659-4.92341-.308326-.671676-4.00115-2.342649-3.855799-3.067263.145352-.724615 4.196929-.842152 4.740435-1.342944.543507-.500791.991555-4.529235 1.72562-4.614917.734058-.08575 2.097856 3.731276 2.74209 4.09343.644235.362155 4.613966-.456589 4.922293.215073.308326.67166-2.900381 3.148209-3.045731 3.872823-.145346.724618 1.860031 4.247048 1.316523 4.747848z"
                                stroke-width="6.241" fill="#ffffff" data-original="#ffffff" class=""></path>
                            <path id="path7634"
                                d="m46.315608 105.61444c-.353919.43554-3.118097-.91826-3.660426-.77393-.542441.1439-2.267999 2.69295-2.79158 2.49093-.523585-.20201-.09023-3.24924-.395082-3.72042-.304849-.4712-3.261996-1.32484-3.231667-1.88523.03033-.56038 3.062334-1.08987 3.416252-1.52541.353921-.43553.251975-3.511734.794303-3.656057.542314-.144375 1.982858 2.575655 2.506442 2.777667.523583.202013 3.417723-.845544 3.722572-.374358.304846.471186-1.836859 2.681728-1.867186 3.242108-.03032.56038 1.860293 2.98916 1.506372 3.4247z"
                                stroke-width="4.739" fill="#ffffff" data-original="#ffffff" class=""></path>
                            <path id="path7636"
                                d="m90.738158 104.1879c.543507.5008 3.890389-1.78558 4.624457-1.6999.734133.0851 3.4644 3.08141 4.108634 2.71926.644231-.36216-.495987-4.25176-.18766-4.92341.308327-.671676 4.001151-2.342649 3.855801-3.067263-.14535-.724615-4.19693-.842152-4.740436-1.342944-.543508-.500791-.991555-4.529235-1.725621-4.614917-.734057-.08575-2.097855 3.731276-2.742089 4.09343-.644235.362155-4.613966-.456589-4.922294.215073-.308325.67166 2.900382 3.148209 3.045731 3.872823.145346.724618-1.86003 4.247048-1.316523 4.747848z"
                                stroke-width="6.241" fill="#ffffff" data-original="#ffffff" class=""></path>
                            <path id="path7638"
                                d="m106.84729 105.61444c.35393.43554 3.1181-.91826 3.66043-.77393.54244.1439 2.268 2.69295 2.79158 2.49093.52359-.20201.0902-3.24924.39509-3.72042.30484-.4712 3.26199-1.32484 3.23166-1.88523-.0304-.56038-3.06234-1.08987-3.41625-1.52541-.35393-.43553-.25198-3.511734-.79431-3.656057-.54231-.144375-1.98286 2.575655-2.50644 2.777667-.52358.202013-3.41772-.845544-3.72257-.374358s1.83686 2.681728 1.86718 3.242108c.0303.56038-1.86029 2.98916-1.50637 3.4247z"
                                stroke-width="4.739" fill="#ffffff" data-original="#ffffff" class=""></path>
                        </g>
                        <path id="path7648"
                            d="m108.70713 80.356562s-6.58277.333911-13.260947.190805c-6.67818-.143104-6.15347-.524717-4.96094-2.194258 1.19253-1.669545 14.405787-1.431039 16.266147-1.049427 1.86034.381609 4.38851 3.100581 1.95574 3.05288z"
                            fill="#ffc517" stroke-width="1.071" data-original="#ffc517" class=""></path>
                    </g>
                </g>
            </g>
        </g>
    </g>
</svg>